<svg width="550" height="226" viewBox="0 0 550 226" fill="none" xmlns="http://www.w3.org/2000/svg">
<mask id="mask0_1645_8245" style="mask-type:alpha" maskUnits="userSpaceOnUse" x="0" y="0" width="550" height="226">
<rect x="0.942383" y="0.0161133" width="549.058" height="225.481" fill="#D9D9D9"/>
</mask>
<g mask="url(#mask0_1645_8245)">
<path d="M337.957 7.24951C334.047 7.24978 330.296 8.75922 327.531 11.4458C324.766 14.1324 323.213 17.776 323.213 21.5751C323.213 34.2048 337.957 45.4346 337.957 45.4346C337.957 45.4346 352.702 34.2048 352.702 21.5751C352.702 17.7759 351.148 14.1323 348.383 11.4457C345.618 8.75912 341.868 7.24972 337.957 7.24951ZM337.957 27.0467C336.581 27.0467 335.236 26.6503 334.091 25.9075C332.947 25.1647 332.055 24.1089 331.528 22.8736C331.002 21.6384 330.864 20.2792 331.132 18.9679C331.401 17.6565 332.064 16.452 333.037 15.5066C334.01 14.5612 335.25 13.9174 336.6 13.6565C337.949 13.3957 339.348 13.5296 340.62 14.0412C341.891 14.5529 342.978 15.4193 343.743 16.531C344.507 17.6427 344.915 18.9497 344.915 20.2867C344.915 21.1744 344.735 22.0535 344.386 22.8737C344.036 23.6939 343.524 24.4391 342.877 25.0668C342.231 25.6946 341.464 26.1925 340.62 26.5322C339.776 26.8719 338.871 27.0468 337.957 27.0467Z" fill="#93288E"/>
<path d="M26.9857 241.637C3.65239 184.803 18.0529 67.1298 125.547 96.1367C214.486 120.137 285.874 193.18 349.547 115.137C402.986 49.637 299.486 30.6371 305.047 90.1367C312.3 167.749 442.547 206.637 594.047 144.137" stroke="#B8B8B8" stroke-width="2" stroke-dasharray="6 6"/>
<path d="M342.832 53.9095C342.832 56.5561 340.718 58.6897 338.095 58.6897C335.472 58.6897 333.358 56.5561 333.358 53.9095C333.358 51.2629 335.472 49.1293 338.095 49.1293C340.718 49.1293 342.832 51.2629 342.832 53.9095Z" fill="#93288E"/>
</g>
</svg>
