<svg version="1.2" xmlns="http://www.w3.org/2000/svg" viewBox="0 0 1921 130" width="1921" height="130">
	<title>footer-svg</title>
	<style>
		.s0 { fill: #172c48 } 
		.s1 { fill: #ffffff } 
	</style>
	<filter id="f0">
		<feFlood flood-color="#d9f1ff" flood-opacity="1" />
		<feBlend mode="normal" in2="SourceGraphic"/>
		<feComposite in2="SourceAlpha" operator="in" />
	</filter>
	<g id="footer-wave-desktop" filter="url(#f0)">
		<g id="Group_22698">
			<path id="Path_16096" class="s0" d="m0 50.9c0 0 73.3 2.7 125.7-50.9 14.6 10.8 139.9 98.7 216.7 47.1 13.8 10 76.9 60.2 159 41.2-48 16.9-110.1 22.2-213.4-11-90.7-29.1-213.1-15.1-288 19.7z"/>
			<path id="Path_16097" class="s0" d="m166.6 21.2c0 0 87.3 49.2 160.1-10.4 15.7 10.4 59.6 57.9 126.7 48-9.3 5.8-55.5 14.5-112.2-17.9-11 7.5-52.6 43.4-174.6-19.7z"/>
			<path id="Path_16098" class="s0" d="m355.5 26.3c0 0 56.3 35.8 117.9-3.5 4.7 2.3 12.8 18.5 45.9 11.2-15.4 9.2-97.1 46.2-163.8-7.7z"/>
			<path id="Path_16099" class="s0" d="m379.4 64.4c0 0 81.5 33 204.1-64.4 21.4 16 144.6 102.2 215.7 47.3 11.6 8.1 68.3 55.2 160 41-28.1 5.8-101.8 28.4-196.4-5.8-94.6-34.1-157.3-35.1-203.6-18.1-46.2 17-85.4 39.3-179.8 0z"/>
			<path id="Path_16100" class="s0" d="m624.2 21.6c0 0 79.4 47.8 160.8-11.2 14.6 12.4 52.4 55.9 125.6 49-9.6 3.1-68.2 12.7-110.2-19.3-11.6 7.4-57.5 44.4-176.2-18.5z"/>
			<path id="Path_16101" class="s0" d="m812 24.7c0 0 62.4 37.8 118.3-2.7 4.6 2.7 17 20.1 47 11.6-7.7 5-100.2 49.3-165.3-8.9z"/>
			<path id="Path_16102" class="s0" d="m1135.1 64.6c-8.5 4.7-82.2 37.9-148.2 9.8-66.1 28.2-139.9-5.1-148.3-9.7 67.2 19.8 146.2-28.8 148.2-30.1 0 0 80.2 50.1 148.3 30z"/>
		</g>
		<path id="Line_135" class="s1" d="m1920 129.3v-25.4"/>
		<path id="Path_16103" class="s0" d="m1920 103.8v25.5h-933.1v0.1h-986.9v-25.5c0 0 119-57.7 256.2-28.4 60.3 14.4 75.2 24.5 127.8 30 73.2 7.7 100.5-6.4 117.4-12 59.1-19.5 113.7-62.6 270.5-1.1 77.8 27 153.4 18.1 214.9-9.3q14 6.3 28.6 11.1 14.6 4.7 29.7 8 15 3.2 30.2 4.8 15.3 1.6 30.7 1.7 12.2 0 24.4-1.1 12.1-1 24.2-3.1 12-2 23.9-5.1 11.8-3 23.3-7.1c156.8-61.4 211.4-18.3 270.5 1.2 16.9 5.6 44.1 19.6 117.4 11.9 52.5-5.5 67.5-15.5 127.7-30 137.3-29.3 202.6 28.4 202.6 28.4z"/>
		<path id="Path_16104" class="s0" d=""/>
		<g id="Group_22699">
			<path id="Path_16105" class="s0" d="m1920 97v-0.1c-52.1-40.8-143.6-48.7-234.3-19.6-103.3 33.2-165.4 27.9-213.4 10.9 82.1 19.1 145.1-31.1 159-41.2 76.7 51.7 202-36.2 216.7-47 15.4 44.7 72 50.8 72 50.8v46.1z"/>
			<path id="Path_16106" class="s0" d="m1807.1 21.2c0 0-87.3 49.2-160.2-10.4-15.6 10.4-59.5 57.8-126.6 48 9.2 5.8 55.5 14.5 112.2-17.9 11 7.5 52.6 43.3 174.6-19.7z"/>
			<path id="Path_16107" class="s0" d="m1618.2 26.2c0 0-56.3 35.9-118-3.5-4.6 2.4-12.7 18.6-45.8 11.2 15.4 9.3 97.1 46.3 163.8-7.7z"/>
			<path id="Path_16108" class="s0" d="m1594.3 64.4c0 0-81.5 33-204.1-64.4-21.4 16-144.6 102.2-215.7 47.2-11.6 8.1-68.3 56.2-160 42 28.1 5.8 101.8 27.4 196.4-6.7 94.6-34.1 157.3-35.1 203.6-18.1 46.2 16.9 85.3 39.3 179.8 0z"/>
			<path id="Path_16109" class="s0" d="m1349.5 21.6c0 0-79.4 47.8-160.8-11.2-14.6 12.3-52.4 55.9-125.7 49 9.7 3.1 68.3 12.7 110.3-19.3 11.6 7.3 57.4 44.3 176.2-18.5z"/>
			<path id="Path_16110" class="s0" d="m1161.7 24.7c0 0-62.4 37.8-118.3-2.7-4.7 2.7-17 20-47.1 11.5 7.7 5.1 100.3 49.4 165.4-8.8z"/>
		</g>
		<path id="Path_16111" class="s0" d=""/>
		<path id="Path_16112" class="s0" d=""/>
	</g>
</svg>